<svg width="39" height="39" viewBox="0 0 39 39" fill="none" xmlns="http://www.w3.org/2000/svg">
<circle cx="19.5" cy="19.5" r="18.5" stroke="#B5B5FF" stroke-width="2"/>
<path d="M8.88218 25C9.08423 25 9.28627 24.9435 9.45948 24.8022L15.3479 19.7999L19.1004 22.9935C19.4467 23.2761 19.9375 23.2761 20.255 22.9652L26.0857 17.7368L27.5578 19.1782C27.731 19.3478 27.9331 19.4325 28.164 19.4325C28.2505 19.4325 28.3372 19.4325 28.4237 19.4043C28.7413 19.3195 28.9722 19.0652 29.0299 18.7543L29.9824 14.0063C30.0402 13.7238 29.9536 13.4411 29.7515 13.2433C29.5494 13.0455 29.2608 12.9607 28.9721 13.0172L24.0651 13.9215C23.7476 13.9781 23.4878 14.2041 23.4013 14.515C23.3147 14.8259 23.4013 15.1368 23.6033 15.3628L24.8445 16.5781L19.6488 21.2412L15.8964 18.0476C15.5788 17.7651 15.0881 17.7651 14.7706 18.0476L8.30488 23.5304C7.92963 23.8413 7.90079 24.3782 8.2183 24.7174C8.39146 24.9152 8.6224 25 8.88218 25Z" fill="#B5B5FF"/>
</svg>
