<svg width="25" height="15" viewBox="0 0 25 15" fill="none" xmlns="http://www.w3.org/2000/svg">
<path d="M0 1.18207C0 0.529229 0.529229 0 1.18207 0H23.8179C24.4708 0 25 0.529229 25 1.18207V1.18207C25 1.8349 24.4708 2.36413 23.8179 2.36413H1.18207C0.529229 2.36413 0 1.8349 0 1.18207V1.18207ZM0 7.5C0 6.84716 0.529228 6.31793 1.18206 6.31793H15.4846C16.1374 6.31793 16.6667 6.84716 16.6667 7.5V7.5C16.6667 8.15284 16.1374 8.68207 15.4846 8.68207H1.18206C0.529226 8.68207 0 8.15284 0 7.5V7.5ZM0 13.8179C0 13.1651 0.529228 12.6359 1.18206 12.6359H23.8179C24.4708 12.6359 25 13.1651 25 13.8179V13.8179C25 14.4708 24.4708 15 23.8179 15H1.18206C0.529228 15 0 14.4708 0 13.8179V13.8179Z" fill="#1110A5"/>
</svg>
