<svg width="19" height="19" viewBox="0 0 19 19" fill="none" xmlns="http://www.w3.org/2000/svg">
<g clip-path="url(#clip0)">
<path d="M18.6262 8.83613L15.5749 7.31058L18.6262 5.78488C19.1719 5.51207 19.1725 4.73045 18.6262 4.4572L9.8683 0.0782779C9.65927 -0.0260926 9.41342 -0.0260926 9.20439 0.0782779L0.446533 4.4572C-0.099238 4.73016 -0.0998179 5.51178 0.446533 5.78488L3.49778 7.31058L0.446533 8.83613C-0.099238 9.10909 -0.0998179 9.89056 0.446533 10.1638L3.49778 11.6895L0.446533 13.2151C-0.099238 13.488 -0.0998179 14.2695 0.446533 14.5427L9.20439 18.9217C9.41298 19.0259 9.65883 19.0263 9.8683 18.9217L18.6262 14.5427C19.1719 14.2698 19.1725 13.4883 18.6262 13.2151L15.5749 11.6895L18.6262 10.1638C19.1719 9.891 19.1725 9.10938 18.6262 8.83613ZM9.53634 1.57194L16.6346 5.12112L9.53634 8.67015L2.43813 5.12112L9.53634 1.57194ZM16.6346 13.879L9.53634 17.428L2.43813 13.879L5.15742 12.5193L9.20439 14.5427C9.41313 14.647 9.65883 14.6474 9.8683 14.5427L13.9153 12.5193L16.6346 13.879ZM9.53634 13.0491L2.43813 9.50004L5.15742 8.14033L9.20439 10.1638C9.41313 10.268 9.65883 10.2685 9.8683 10.1638L13.9153 8.14033L16.6346 9.50004L9.53634 13.0491Z" fill="#9A99C9"/>
</g>
<defs>
<clipPath id="clip0">
<rect width="19" height="19" fill="white"/>
</clipPath>
</defs>
</svg>
