<svg width="14" height="14" viewBox="0 0 14 14" fill="none" xmlns="http://www.w3.org/2000/svg">
<path fill-rule="evenodd" clip-rule="evenodd" d="M8.16667 4.66667V3.2776C8.16667 2.65052 8.30521 2.33333 9.27865 2.33333H10.5V0H8.46198C5.96458 0 5.14062 1.14479 5.14062 3.1099V4.66667H3.5V7H5.14062V14H8.16667V7H10.2229L10.5 4.66667H8.16667Z" fill="#767676"/>
<mask id="mask0" mask-type="alpha" maskUnits="userSpaceOnUse" x="3" y="0" width="8" height="14">
<path fill-rule="evenodd" clip-rule="evenodd" d="M8.16667 4.66667V3.2776C8.16667 2.65052 8.30521 2.33333 9.27865 2.33333H10.5V0H8.46198C5.96458 0 5.14062 1.14479 5.14062 3.1099V4.66667H3.5V7H5.14062V14H8.16667V7H10.2229L10.5 4.66667H8.16667Z" fill="white"/>
</mask>
<g mask="url(#mask0)">
<rect width="14.3636" height="14.3636" fill="white"/>
</g>
</svg>
