<svg width="14" height="14" viewBox="0 0 14 14" fill="none" xmlns="http://www.w3.org/2000/svg">
<path fill-rule="evenodd" clip-rule="evenodd" d="M13.9071 4.06423C13.9071 2.83616 13.0038 1.84825 11.8876 1.84825C10.3757 1.77729 8.83381 1.75 7.25914 1.75C7.17727 1.75 7.0954 1.75 7.01353 1.75C6.93166 1.75 6.84979 1.75 6.76791 1.75C5.19598 1.75 3.65133 1.77729 2.13944 1.84825C1.02598 1.84825 0.122665 2.84162 0.122665 4.06969C0.0544385 5.04123 0.0244189 6.01277 0.0271479 6.98431C0.0244189 7.95585 0.0544385 8.92739 0.119936 9.90166C0.119936 11.1297 1.02325 12.1258 2.13671 12.1258C3.72502 12.1995 5.35426 12.2323 7.0108 12.2295C8.67006 12.235 10.2939 12.2022 11.8849 12.1258C13.0011 12.1258 13.9044 11.1297 13.9044 9.90166C13.9699 8.92739 13.9999 7.95585 13.9972 6.98158C14.0026 6.01004 13.9726 5.0385 13.9071 4.06423ZM5.67632 9.66164V4.29906L9.63345 6.97899L5.67632 9.66164Z" fill="white"/>
<mask id="mask0" mask-type="alpha" maskUnits="userSpaceOnUse" x="0" y="1" width="14" height="12">
<path fill-rule="evenodd" clip-rule="evenodd" d="M13.9071 4.06423C13.9071 2.83616 13.0038 1.84825 11.8876 1.84825C10.3757 1.77729 8.83381 1.75 7.25914 1.75C7.17727 1.75 7.0954 1.75 7.01353 1.75C6.93166 1.75 6.84979 1.75 6.76791 1.75C5.19598 1.75 3.65133 1.77729 2.13944 1.84825C1.02598 1.84825 0.122665 2.84162 0.122665 4.06969C0.0544385 5.04123 0.0244189 6.01277 0.0271479 6.98431C0.0244189 7.95585 0.0544385 8.92739 0.119936 9.90166C0.119936 11.1297 1.02325 12.1258 2.13671 12.1258C3.72502 12.1995 5.35426 12.2323 7.0108 12.2295C8.67006 12.235 10.2939 12.2022 11.8849 12.1258C13.0011 12.1258 13.9044 11.1297 13.9044 9.90166C13.9699 8.92739 13.9999 7.95585 13.9972 6.98158C14.0026 6.01004 13.9726 5.0385 13.9071 4.06423ZM5.67632 9.66164V4.29906L9.63345 6.97899L5.67632 9.66164Z" fill="white"/>
</mask>
<g mask="url(#mask0)">
<rect width="14.3636" height="14.3636" fill="white"/>
</g>
</svg>
