<svg width="14" height="14" viewBox="0 0 14 14" fill="none" xmlns="http://www.w3.org/2000/svg">
<path fill-rule="evenodd" clip-rule="evenodd" d="M13.9973 2.51608C13.4813 2.74447 12.9298 2.89871 12.3485 2.96989C12.9416 2.61396 13.3983 2.0504 13.6118 1.38006C13.0573 1.7093 12.4434 1.94955 11.788 2.0771C11.2632 1.5165 10.5159 1.1665 9.69144 1.1665C8.1049 1.1665 6.82085 2.45379 6.82085 4.04066C6.82085 4.26608 6.84457 4.48557 6.89498 4.69617C4.50776 4.57752 2.3904 3.43261 0.975856 1.6915C0.72972 2.11566 0.587376 2.611 0.587376 3.136C0.587376 4.13261 1.09744 5.01354 1.86847 5.52964C1.39399 5.51778 0.949166 5.38727 0.563652 5.17074C0.563652 5.18261 0.563652 5.19447 0.563652 5.20633C0.563652 6.6004 1.55413 7.76015 2.86784 8.02413C2.62764 8.08939 2.3726 8.12498 2.11164 8.12498C1.92778 8.12498 1.74688 8.10718 1.57192 8.07159C1.93668 9.21354 2.99832 10.044 4.25569 10.0678C3.27411 10.839 2.03454 11.2987 0.688203 11.2987C0.456894 11.2987 0.228551 11.2839 0.00317383 11.2572C1.26944 12.0818 2.77888 12.5563 4.39804 12.5563C9.68551 12.5563 12.5739 8.1754 12.5739 4.37583C12.5739 4.25125 12.5709 4.12667 12.565 4.00506C13.1255 3.59871 13.6118 3.09447 13.9973 2.51608Z" fill="#FFFDFD"/>
<mask id="mask0" mask-type="alpha" maskUnits="userSpaceOnUse" x="0" y="1" width="14" height="12">
<path fill-rule="evenodd" clip-rule="evenodd" d="M13.9973 2.51608C13.4813 2.74447 12.9298 2.89871 12.3485 2.96989C12.9416 2.61396 13.3983 2.0504 13.6118 1.38006C13.0573 1.7093 12.4434 1.94955 11.788 2.0771C11.2632 1.5165 10.5159 1.1665 9.69144 1.1665C8.1049 1.1665 6.82085 2.45379 6.82085 4.04066C6.82085 4.26608 6.84457 4.48557 6.89498 4.69617C4.50776 4.57752 2.3904 3.43261 0.975856 1.6915C0.72972 2.11566 0.587376 2.611 0.587376 3.136C0.587376 4.13261 1.09744 5.01354 1.86847 5.52964C1.39399 5.51778 0.949166 5.38727 0.563652 5.17074C0.563652 5.18261 0.563652 5.19447 0.563652 5.20633C0.563652 6.6004 1.55413 7.76015 2.86784 8.02413C2.62764 8.08939 2.3726 8.12498 2.11164 8.12498C1.92778 8.12498 1.74688 8.10718 1.57192 8.07159C1.93668 9.21354 2.99832 10.044 4.25569 10.0678C3.27411 10.839 2.03454 11.2987 0.688203 11.2987C0.456894 11.2987 0.228551 11.2839 0.00317383 11.2572C1.26944 12.0818 2.77888 12.5563 4.39804 12.5563C9.68551 12.5563 12.5739 8.1754 12.5739 4.37583C12.5739 4.25125 12.5709 4.12667 12.565 4.00506C13.1255 3.59871 13.6118 3.09447 13.9973 2.51608Z" fill="white"/>
</mask>
<g mask="url(#mask0)">
<rect width="14.3636" height="14.3636" fill="#FFFDFD"/>
</g>
</svg>
