<svg width="14" height="14" viewBox="0 0 14 14" fill="none" xmlns="http://www.w3.org/2000/svg">
<path fill-rule="evenodd" clip-rule="evenodd" d="M12.8751 0H1.19564C0.557725 0 0 0.459375 0 1.0901V12.7969C0 13.4312 0.557725 13.9964 1.19564 13.9964H12.8714C13.513 13.9964 13.9941 13.4276 13.9941 12.7969V1.0901C13.9978 0.459375 13.513 0 12.8751 0ZM4.33795 11.6668H2.33306V5.43242H4.33795V11.6668ZM3.40477 4.48441H3.39019C2.74862 4.48441 2.33306 4.0068 2.33306 3.40889C2.33306 2.80003 2.75956 2.33336 3.4157 2.33336C4.07185 2.33336 4.47283 2.79639 4.48741 3.40889C4.48741 4.0068 4.07185 4.48441 3.40477 4.48441ZM11.665 11.6668H9.66008V8.25791C9.66008 7.44124 9.36846 6.88343 8.64305 6.88343C8.08898 6.88343 7.7609 7.25895 7.61509 7.62353C7.56041 7.75478 7.54583 7.93343 7.54583 8.11572V11.6668H5.54094V5.43238H7.54583V6.30009C7.83745 5.88447 8.29311 5.28655 9.35388 5.28655C10.6698 5.28655 11.665 6.15426 11.665 8.02457V11.6668Z" fill="white"/>
<mask id="mask0" mask-type="alpha" maskUnits="userSpaceOnUse" x="0" y="0" width="14" height="14">
<path fill-rule="evenodd" clip-rule="evenodd" d="M12.8751 0H1.19564C0.557725 0 0 0.459375 0 1.0901V12.7969C0 13.4312 0.557725 13.9964 1.19564 13.9964H12.8714C13.513 13.9964 13.9941 13.4276 13.9941 12.7969V1.0901C13.9978 0.459375 13.513 0 12.8751 0ZM4.33795 11.6668H2.33306V5.43242H4.33795V11.6668ZM3.40477 4.48441H3.39019C2.74862 4.48441 2.33306 4.0068 2.33306 3.40889C2.33306 2.80003 2.75956 2.33336 3.4157 2.33336C4.07185 2.33336 4.47283 2.79639 4.48741 3.40889C4.48741 4.0068 4.07185 4.48441 3.40477 4.48441ZM11.665 11.6668H9.66008V8.25791C9.66008 7.44124 9.36846 6.88343 8.64305 6.88343C8.08898 6.88343 7.7609 7.25895 7.61509 7.62353C7.56041 7.75478 7.54583 7.93343 7.54583 8.11572V11.6668H5.54094V5.43238H7.54583V6.30009C7.83745 5.88447 8.29311 5.28655 9.35388 5.28655C10.6698 5.28655 11.665 6.15426 11.665 8.02457V11.6668Z" fill="white"/>
</mask>
<g mask="url(#mask0)">
</g>
</svg>
