<svg width="17" height="17" viewBox="0 0 17 17" fill="none" xmlns="http://www.w3.org/2000/svg">
<g clip-path="url(#clip0)">
<path d="M16.7842 7.90891L14.8586 6.44773C13.9228 5.73772 12.7606 5.34672 11.586 5.34672H11.465C11.2231 4.43047 10.3875 3.75293 9.39627 3.75293H8.50002C8.31153 3.75293 8.13638 3.85025 8.03677 4.01025L7.34508 5.1217C7.18587 5.37756 7.26416 5.71404 7.52006 5.87325C7.77586 6.03246 8.11241 5.95417 8.27162 5.69827L8.80313 4.84419H9.39627C9.77446 4.84419 10.1065 5.0456 10.2909 5.34672H10.0371C9.73574 5.34672 9.49147 5.59103 9.49147 5.89234C9.49147 6.33803 9.33727 6.74809 9.07998 7.07298H3.36571C3.06436 7.07298 2.82008 7.31729 2.82008 7.61861C2.82008 7.6815 2.83124 7.74166 2.85086 7.79791H1.53143C1.30867 7.79791 1.10832 7.93331 1.02518 8.13994L0.0394139 10.5912C-0.028221 10.7594 -0.00793387 10.9501 0.0935351 11.1003C0.194971 11.2504 0.364374 11.3405 0.545663 11.3405H1.08389L1.65565 12.8913C1.73474 13.1058 1.93904 13.2483 2.16761 13.2483H9.24633C11.5002 13.2483 13.7431 12.6883 15.7325 11.6291L15.9251 11.5266C16.0103 11.4812 16.0783 11.4163 16.1271 11.3405H16.4544C16.7558 11.3405 17.0001 11.0962 17.0001 10.7949V8.34367C17 8.17294 16.9202 8.01207 16.7842 7.90891ZM9.2463 12.1569H2.54792L2.2469 11.3404H13.7249C12.2968 11.8771 10.7743 12.1569 9.2463 12.1569ZM15.9088 10.2491H1.35316L1.90012 8.8892H7.5859C8.4018 8.8892 9.1423 8.56115 9.68325 8.0304C9.70636 8.01034 9.72804 7.98873 9.7475 7.96505C10.1445 7.55121 10.4246 7.02447 10.533 6.43797H11.586C12.5238 6.43797 13.4518 6.75018 14.199 7.31706L15.9088 8.61444V10.2491Z" fill="white"/>
</g>
<defs>
<clipPath id="clip0">
<rect width="17" height="17" fill="white"/>
</clipPath>
</defs>
</svg>
