<svg width="58" height="34" viewBox="0 0 58 34" fill="none" xmlns="http://www.w3.org/2000/svg">
<path d="M57.2638 14.981L50.6939 9.9958C47.5013 7.57338 43.536 6.23938 39.5287 6.23938H39.1158C38.2906 3.11338 35.4396 0.801758 32.0579 0.801758H29.0001C28.357 0.801758 27.7594 1.13379 27.4196 1.67969L25.0597 5.47167C24.5165 6.34462 24.7836 7.49261 25.6567 8.0358C26.5294 8.57898 27.6776 8.31187 28.2208 7.43881L30.0342 4.52487H32.0579C33.3482 4.52487 34.4811 5.21203 35.11 6.23938H34.2442C33.2161 6.23938 32.3827 7.07291 32.3827 8.10094C32.3827 9.62151 31.8566 11.0205 30.9788 12.129H11.483C10.4549 12.129 9.62146 12.9625 9.62146 13.9906C9.62146 14.2051 9.65952 14.4104 9.72647 14.6023H5.22489C4.46488 14.6023 3.78134 15.0642 3.49768 15.7692L0.134471 24.1324C-0.0962835 24.7061 -0.0270685 25.3569 0.31912 25.8691C0.665195 26.3815 1.24316 26.6886 1.86167 26.6886H3.69797L5.64867 31.9799C5.91851 32.7116 6.61553 33.1977 7.39536 33.1977H31.5463C39.2358 33.1977 46.8881 31.2873 53.6755 27.6734L54.3326 27.3236C54.6233 27.1688 54.8553 26.9473 55.0218 26.6888H56.1387C57.1668 26.6888 58.0002 25.8553 58.0002 24.8273V16.4643C58 15.8818 57.7276 15.3329 57.2638 14.981ZM31.5462 29.4741H8.69289L7.66588 26.6884H46.826C41.9538 28.5195 36.7595 29.4741 31.5462 29.4741ZM54.277 22.9652H4.61668L6.48277 18.3255H25.8813C28.665 18.3255 31.1914 17.2063 33.037 15.3955C33.1158 15.327 33.1898 15.2533 33.2562 15.1725C34.6107 13.7606 35.5664 11.9635 35.9361 9.96249H39.5288C42.7284 9.96249 45.8944 11.0277 48.4436 12.9617L54.277 17.3881V22.9652Z" fill="white"/>
</svg>
