<svg width="53" height="53" viewBox="0 0 53 53" fill="none" xmlns="http://www.w3.org/2000/svg">
<g clip-path="url(#clip0)">
<path d="M24.7237 16.3896C24.3212 16.5067 23.9159 16.6371 23.5104 16.7816C23.0949 16.9298 22.6998 17.0847 22.3246 17.2441L28.4865 34.5145L31.2268 34.6159L24.7237 16.3896Z" fill="white"/>
<path d="M0.577736 23.1695C0.79634 23.2984 1.07153 23.2817 1.27303 23.127C2.64252 22.0751 4.4955 21.0775 6.62682 20.3172C12.0711 18.3752 14.9324 19.333 15.1257 19.333C15.3185 19.333 15.504 19.2433 15.6234 19.0848C16.8438 17.4635 19.4564 15.7408 22.7231 14.5755C25.1708 13.7024 28.6187 12.972 31.0738 13.5734C31.3154 13.6326 31.5698 13.5421 31.7196 13.3431C32.94 11.7219 35.5525 9.99915 38.8193 8.83385C40.9506 8.07354 43.0166 7.67324 44.7427 7.62087C44.9966 7.61314 45.2202 7.45206 45.3081 7.21377C45.3958 6.97549 45.3301 6.7078 45.1418 6.53723C42.5212 4.16211 37.2094 2.438 30.9396 2.43788C27.5891 2.43776 23.9653 2.93238 20.3316 4.08081L19.7423 2.42886C19.6701 2.22631 19.5515 2.05386 19.4032 1.9182C19.0664 1.61009 18.575 1.49318 18.1151 1.65731C17.6645 1.81804 17.3501 2.21986 17.2833 2.67183C17.2538 2.87157 17.2712 3.08104 17.3437 3.28453L17.9326 4.9353C7.76705 8.98568 1.08547 17.1738 0.278298 22.5405C0.240576 22.7917 0.359015 23.0405 0.577736 23.1695Z" fill="white"/>
<path d="M39.9149 28.8605C38.9974 29.0051 38.2285 29.6322 37.9026 30.502C37.628 31.2349 35.6896 36.4079 35.4238 37.1175L18.3165 36.4845C17.6313 36.4593 16.9689 36.7129 16.4771 37.1834C15.9836 37.6554 15.7024 38.3071 15.6973 38.99L15.6595 44.1321C15.6546 44.8025 15.9163 45.4474 16.3871 45.9247C16.8579 46.4019 17.4991 46.6724 18.1696 46.6765L21.9511 46.7L17.8038 42.4157L24.9942 47.0349C24.9949 47.0354 24.9956 47.0357 24.9963 47.0361C25.5794 47.4097 26.3041 47.4527 26.9114 47.1864L34.3569 43.9214C35.4464 43.4436 35.9033 42.1309 35.3195 41.0731C35.3107 41.057 35.3014 41.0414 35.2921 41.0257C34.7777 40.1502 33.6786 39.7748 32.7224 40.1941L26.2761 43.0209L19.7647 38.8379L26.1743 40.9325L31.9378 38.4051C33.9533 37.5212 36.3077 38.4386 37.1922 40.4559C38.0729 42.4644 37.1654 44.8229 35.1413 45.7104C33.7826 46.3062 34.1111 46.1621 32.7325 46.7667C32.7558 46.7669 35.3701 46.6925 35.5537 46.6925C36.5974 46.6925 37.5797 46.0538 37.9675 45.0188L41.1306 36.5776C41.8216 37.4481 47.6178 44.7492 48.3488 45.6699C49.2338 46.7847 50.8549 46.9708 51.9698 46.0859C53.0846 45.2008 53.2709 43.5796 52.3858 42.4648L42.3345 29.8039C41.7568 29.0763 40.8323 28.7161 39.9149 28.8605Z" fill="white"/>
<path d="M8.69981 36.964C6.06227 36.9476 3.9109 39.0725 3.8945 41.7101C3.87822 44.3477 6.0031 46.4991 8.64064 46.5154C11.2861 46.5318 13.4297 44.3957 13.4459 41.7693C13.4621 39.144 11.3467 36.9804 8.69981 36.964Z" fill="white"/>
<path d="M51.7265 48.8682C50.8462 48.8682 2.17959 48.8682 1.27331 48.8682C0.570056 48.8682 0 49.4382 0 50.1416C0 50.845 0.570056 51.415 1.27343 51.415H51.7266C52.4299 51.415 53.0001 50.845 53.0001 50.1416C53.0001 49.4382 52.4299 48.8682 51.7265 48.8682Z" fill="white"/>
</g>
<defs>
<clipPath id="clip0">
<rect width="53" height="53" fill="white"/>
</clipPath>
</defs>
</svg>
